<svg width="130" height="140" viewBox="0 0 130 140" fill="none" xmlns="http://www.w3.org/2000/svg">
<path d="M64.7601 139.445C51.7193 139.445 40.3595 136.999 30.6807 132.109C21.0019 127.116 13.5136 120.139 8.21582 111.173C3.01985 102.207 0.421875 91.7135 0.421875 79.6911C0.421875 67.669 3.01985 57.1752 8.21582 48.2096C13.5136 39.244 21.0019 32.3161 30.6807 27.4258C40.3595 22.4336 51.7193 19.9375 64.7601 19.9375C77.6991 19.9375 88.957 22.4336 98.5343 27.4258C108.212 32.3161 115.701 39.244 120.998 48.2096C126.296 57.1752 128.945 67.669 128.945 79.6911C128.945 91.7135 126.296 102.207 120.998 111.173C115.701 120.139 108.212 127.116 98.5343 132.109C88.957 136.999 77.6991 139.445 64.7601 139.445ZM64.7601 113.77C75.0502 113.77 83.0479 110.815 88.7532 104.906C94.4583 98.8955 97.3113 90.4905 97.3113 79.6911C97.3113 68.7897 94.4583 60.3845 88.7532 54.4753C83.0479 48.5662 75.0502 45.6116 64.7601 45.6116C54.4701 45.6116 46.4214 48.5662 40.6142 54.4753C34.8069 60.3845 31.9033 68.7897 31.9033 79.6911C31.9033 90.4905 34.8069 98.8955 40.6142 104.906C46.4214 110.815 54.4701 113.77 64.7601 113.77Z" fill="#FF5912"/>
<path d="M102.475 49.8461L25.5469 86.4453L35.5833 107.541L112.511 70.9415L102.475 49.8461Z" fill="#FF5912"/>
</svg>
